<svg id="Layer_5" enable-background="new 0 0 64 64" height="512" viewBox="0 0 64 64" width="512" xmlns="http://www.w3.org/2000/svg"><g><path d="m59 57.101v-34.101h2.419l-5.714-16h-12.705v2h11.295l4.286 12h-53.162l4.286-12h11.295v-2h-12.705l-5.714 16h2.419v34.101c-2.279.465-4 2.485-4 4.899v1h62v-1c0-2.414-1.721-4.434-4-4.899zm-2-34.101v34h-2v-29c0-1.654-1.346-3-3-3h-16c-1.654 0-3 1.346-3 3v29h-2v-29c0-1.654-1.346-3-3-3h-16c-1.654 0-3 1.346-3 3v29h-2v-34zm-8 26h-10v-2h10zm-10 2h10v2h-10zm0 4h10v2h-10zm-2-10v12h-2v-14h18v14h-2v-12zm16-12h-18v-5c0-.552.448-1 1-1h16c.552 0 1 .448 1 1zm-18 2h18v6h-18zm-10 14h-10v-2h10zm-10 2h10v2h-10zm0 4h10v2h-10zm-2-10v12h-2v-14h18v14h-2v-12zm16-12h-18v-5c0-.552.448-1 1-1h16c.552 0 1 .448 1 1zm-18 2h18v6h-18zm-7.829 26c.413-1.164 1.525-2 2.829-2h52c1.304 0 2.416.836 2.829 2z"/><path d="m37 29h2v2h-2z"/><path d="m41 29h2v2h-2z"/><path d="m49 37h2v2h-2z"/><path d="m45 37h2v2h-2z"/><path d="m13 29h2v2h-2z"/><path d="m17 29h2v2h-2z"/><path d="m21 37h2v2h-2z"/><path d="m25 37h2v2h-2z"/><path d="m29 16c0 1.654 1.346 3 3 3s3-1.346 3-3-1.346-3-3-3-3 1.346-3 3zm4 0c0 .552-.448 1-1 1s-1-.448-1-1 .448-1 1-1 1 .448 1 1z"/><path d="m36.949 11.051c-1.321-1.322-3.079-2.051-4.949-2.051s-3.628.729-4.949 2.051l1.414 1.414c.944-.944 2.2-1.465 3.535-1.465s2.591.521 3.535 1.465z"/><path d="m39.778 8.222c-4.289-4.289-11.268-4.289-15.557 0l1.414 1.414c3.51-3.51 9.219-3.51 12.729 0z"/><path d="m32 3c3.473 0 6.737 1.353 9.192 3.808l1.414-1.414c-2.833-2.833-6.599-4.394-10.606-4.394s-7.773 1.561-10.606 4.394l1.414 1.414c2.455-2.455 5.719-3.808 9.192-3.808z"/><path d="m45 17h2v2h-2z"/><path d="m49 17h2v2h-2z"/><path d="m53 17h2v2h-2z"/></g></svg>